<mxfile host="app.diagrams.net" modified="2024-06-17T16:36:46.069Z" agent="Mozilla/5.0 (Macintosh; Intel Mac OS X 10_15_7) AppleWebKit/537.36 (KHTML, like Gecko) Chrome/126.0.0.0 Safari/537.36" version="24.5.4" etag="nkQNaiYmhV4x3cYW3fuO" type="github">
  <diagram name="Page-1" id="ArdbZt9H8cDgH1ETmTov">
    <mxGraphModel>
      <root>
        <mxCell id="0" />
        <mxCell id="1" parent="0" />
      </root>
    </mxGraphModel>
  </diagram>
</mxfile>
